<?xml version="1.0" encoding="iso-8859-1"?>
<!-- Generator: Adobe Illustrator 15.0.0, SVG Export Plug-In . SVG Version: 6.00 Build 0)  -->
<!DOCTYPE svg PUBLIC "-//W3C//DTD SVG 1.1//EN" "http://www.w3.org/Graphics/SVG/1.1/DTD/svg11.dtd">
<svg version="1.1" id="Layer_1" xmlns="http://www.w3.org/2000/svg" xmlns:xlink="http://www.w3.org/1999/xlink" x="0px" y="0px"
	 width="612px" height="792px" viewBox="0 0 612 792" style="enable-background:new 0 0 612 792;" xml:space="preserve">
<style type="text/css">
<![CDATA[
	.st0{font-family:'PTSans-Bold';}
	.st1{fill:#FFFFFF;stroke:#A7A9AC;stroke-miterlimit:10;}
	.st2{fill:#BCBEC0;}
	.st3{fill:none;}
	.st4{font-family:'PTSans-BoldItalic';}
	.st5{font-family:'PTSans-Regular';}
	.st6{fill:#D1D3D4;}
	.st7{font-size:12;}
	.st8{font-size:14;}
	.st9{font-size:26;}
	.st10{font-family:'PTSans-Italic';}
]]>
</style>
<g id="HTMLINPUT-TEXT-input-with-placeholder">
	<rect x="176.1" y="161.4" class="st1" width="246.8" height="16.9"/>
	<rect x="180" y="165.3" class="st3" width="175.3" height="13"/>
	<text transform="matrix(1 0 0 1 180.0132 173.6982)" class="st6 st5 st7">Enter your text here</text>
</g>
<rect id="HTMLINPUT-TEXT-simple-input" x="176.1" y="125.1" class="st1" width="246.8" height="16.9"/>
<rect x="24.8" y="43.4" class="st3" width="327.3" height="33.8"/>
<text transform="matrix(1 0 0 1 24.8184 61.6021)" class="st4 st9">Prototype with SVG</text>
<rect x="58.6" y="128.3" class="st3" width="83.1" height="14.9"/>
<text transform="matrix(1 0 0 1 110.3145 138.1372)" class="st10 st8">email</text>
<rect x="58.6" y="163.4" class="st3" width="83.1" height="14.9"/>
<text transform="matrix(1 0 0 1 89.3145 173.2021)" class="st10 st8">comment</text>
<rect x="24.8" y="74.6" class="st3" width="331.2" height="15.6"/>
<text transform="matrix(1 0 0 1 24.8184 84.3711)" class="st2 st0 st8">a demonstration of the library&#x2019;s capabilities</text>
<rect x="176.1" y="212.1" class="st3" width="394.9" height="81.9"/>
<text transform="matrix(1 0 0 1 176.1172 220.5171)"><tspan x="0" y="0" class="st5 st7">Rectangles named with the key word &#x201C;HTMLINPUT-TEXT&#x201D; will be rendered </tspan><tspan x="0" y="14.4" class="st5 st7">into &lt;textarea&gt;s. To have the resulting &lt;textarea&gt; have an id, for example, </tspan><tspan x="0" y="28.8" class="st5 st7">&#x201C;boxId&#x201D;, name the rectangle &#x201C;HTMLINPUT-TEXT-boxId&#x201D;.</tspan><tspan x="0" y="47.2" class="st5 st7">To include placeholder text, group the rectangle with a text field, and name </tspan><tspan x="0" y="61.6" class="st5 st7">the group &#x201C;HTMLINPUT-TEXT-[your-id-here]&#x201D; like above.</tspan></text>
</svg>
